<?xml version="1.0" encoding="utf-8"?>
<!-- Generator: Adobe Illustrator 22.0.0, SVG Export Plug-In . SVG Version: 6.00 Build 0)  -->
<svg version="1.1" id="Layer_1" xmlns="http://www.w3.org/2000/svg" xmlns:xlink="http://www.w3.org/1999/xlink" x="0px" y="0px"
	 viewBox="0 0 341.9 354.9" style="enable-background:new 0 0 341.9 354.9;" xml:space="preserve">
<style type="text/css">
	.st0{fill:#6E89C0;}
</style>
<g>
	<g>
		<path class="st0" d="M151.3,144.8c-1.4,0-2.7,0.7-3.5,2c-0.7,1.2-0.8,2.7-0.1,4l81.6,153.9l25.7-48.1L196.8,147
			c-0.7-1.3-2.1-2.2-3.6-2.2L151.3,144.8z M125,153.7c-3.4-6.4-3.2-14,0.5-20.3c3.8-6.2,10.4-10,17.7-10l52.9,0
			c7.7,0,14.6,4.2,18.2,10.9l64.8,122.3l-50,93.6L125,153.7z"/>
		<path class="st0" d="M268.9,144.8c-1.4,0-2.7,0.7-3.5,2c-0.7,1.2-0.8,2.7-0.1,4l23,43.4l23.2-43.4c0.7-1.3,0.6-2.8-0.1-4
			c-0.7-1.2-2-2-3.5-2L268.9,144.8z M242.6,153.6c-3.4-6.4-3.2-14,0.5-20.3c3.8-6.2,10.4-10,17.7-10l55.2,0c7.3,0,13.9,3.7,17.7,10
			c3.8,6.3,4,13.9,0.5,20.3l-46,86.1L242.6,153.6z"/>
		<path class="st0" d="M34.2,144.9c-1.4,0-2.7,0.7-3.5,2c-0.7,1.2-0.8,2.7-0.1,4L112,304.4l25.7-48.1L79.7,147.1
			c-0.7-1.3-2.1-2.2-3.6-2.2L34.2,144.9z M7.9,153.8c-3.4-6.4-3.2-14,0.5-20.3c3.8-6.2,10.4-10,17.7-10H79c7.7,0,14.6,4.2,18.2,10.9
			l64.6,121.9l-50,93.6L7.9,153.8z"/>
		<path class="st0" d="M237,40.2c-0.7-2-1.9-6.2-2.8-9.1c-1.7-5.4-3.7-11.6-7.6-16.8c-4.6-6.2-10.9-9.2-19.3-9.2h-69.2
			c-8.9,0-16.4,6.7-17.4,15.6l-11.4,102l2.7-3.1c5.1-5.9,11.8-10,19.5-11.7l0.9-0.2l9.1-81.4h65.7l-22.5,7.9l18.9,72.7l0.8,0.1
			c8.2,0.8,16.1,4.6,22.1,10.6l4,5l-23.2-82.3C208.9,40.2,237,40.2,237,40.2"/>
	</g>
</g>
</svg>
