<?xml version="1.0" encoding="utf-8"?>
<!-- Generator: Adobe Illustrator 22.0.0, SVG Export Plug-In . SVG Version: 6.00 Build 0)  -->
<svg version="1.1" id="Layer_1" xmlns="http://www.w3.org/2000/svg" xmlns:xlink="http://www.w3.org/1999/xlink" x="0px" y="0px"
	 viewBox="0 0 331.1 345.2" style="enable-background:new 0 0 331.1 345.2;" xml:space="preserve">
<style type="text/css">
	.st0{fill:#FFFFFF;}
</style>
<g>
	<g>
		<path class="st0" d="M145.8,139.7c-1.4,0-2.7,0.7-3.5,2c-0.7,1.2-0.8,2.7-0.1,4l81.6,153.9l25.7-48.1l-58.1-109.7
			c-0.7-1.3-2.1-2.2-3.6-2.2L145.8,139.7z M119.5,148.6c-3.4-6.4-3.2-14,0.5-20.3c3.8-6.2,10.4-10,17.7-10l52.9,0
			c7.7,0,14.6,4.2,18.2,10.9l64.8,122.3l-50,93.6L119.5,148.6z"/>
		<path class="st0" d="M263.4,139.7c-1.4,0-2.7,0.7-3.5,2c-0.7,1.2-0.8,2.7-0.1,4l23,43.4l23.2-43.4c0.7-1.3,0.6-2.8-0.1-4
			c-0.7-1.2-2-2-3.5-2L263.4,139.7z M237.1,148.5c-3.4-6.4-3.2-14,0.5-20.3c3.8-6.2,10.4-10,17.7-10l55.2,0c7.3,0,13.9,3.7,17.7,10
			c3.8,6.3,4,13.9,0.5,20.3l-46,86.1L237.1,148.5z"/>
		<path class="st0" d="M28.7,139.8c-1.4,0-2.7,0.7-3.5,2c-0.7,1.2-0.8,2.7-0.1,4l81.3,153.5l25.7-48.1L74.2,141.9
			c-0.7-1.3-2.1-2.2-3.6-2.2L28.7,139.8z M2.4,148.7c-3.4-6.4-3.2-14,0.5-20.3c3.8-6.2,10.4-10,17.7-10h52.9
			c7.7,0,14.6,4.2,18.2,10.9l64.6,121.9l-50,93.6L2.4,148.7z"/>
		<path class="st0" d="M231.5,35.1c-0.7-2-1.9-6.2-2.8-9.1C227,20.6,225,14.4,221,9.2C216.4,3,210.1,0,201.8,0h-69.2
			c-8.9,0-16.4,6.7-17.4,15.6l-11.4,102l2.7-3.1c5.1-5.9,11.8-10,19.5-11.7l0.9-0.2l9.1-81.4h65.7L179.1,29l18.9,72.7l0.8,0.1
			c8.2,0.8,16.1,4.6,22.1,10.6l4,5l-23.2-82.3C203.4,35.1,231.5,35.1,231.5,35.1"/>
	</g>
</g>
</svg>
